<?xml version="1.0"?>
<svg xmlns="http://www.w3.org/2000/svg" xmlns:xlink="http://www.w3.org/1999/xlink" xmlns:svgjs="http://svgjs.com/svgjs" version="1.1" width="512" height="512" x="0" y="0" viewBox="0 0 512 512" style="enable-background:new 0 0 512 512" xml:space="preserve" class=""><g><path xmlns="http://www.w3.org/2000/svg" d="m354 432c0 44.113281-35.886719 80-80 80h-194c-44.113281 0-80-35.886719-80-80v-352c0-44.113281 35.886719-80 80-80h194c44.113281 0 80 35.886719 80 80v8.121094c0 11.046875-8.953125 20-20 20s-20-8.953125-20-20v-8.121094c0-22.054688-17.945312-40-40-40h-194c-22.054688 0-40 17.945312-40 40v352c0 22.054688 17.945312 40 40 40h194c22.054688 0 40-17.945312 40-40 0-11.046875 8.953125-20 20-20s20 8.953125 20 20zm-197-10.878906c0 11.046875 8.953125 20 20 20s20-8.953125 20-20-8.953125-20-20-20-20 8.953125-20 20zm60-330c0-11.046875-8.953125-20-20-20h-40c-11.046875 0-20 8.953125-20 20s8.953125 20 20 20h40c11.046875 0 20-8.953125 20-20zm210.917969 57h-165.917969c-11.046875 0-20 8.953125-20 20s8.953125 20 20 20h167.9375l-23.011719 22.789062c-7.847656 7.773438-7.910156 20.4375-.136719 28.285156 3.910157 3.949219 9.058594 5.925782 14.210938 5.925782 5.085938 0 10.175781-1.925782 14.074219-5.789063l35.125-34.785156c9.542969-9.453125 14.800781-22.03125 14.800781-35.425781 0-13.390625-5.257812-25.972656-14.800781-35.421875l-35.125-34.789063c-7.851563-7.769531-20.511719-7.710937-28.285157.140625-7.773437 7.847657-7.710937 20.511719.136719 28.28125zm37.082031 137h-167.9375l23.011719-22.789063c7.847656-7.769531 7.910156-20.433593.136719-28.28125-7.773438-7.851562-20.4375-7.910156-28.285157-.140625l-35.125 34.789063c-9.542969 9.449219-14.800781 22.03125-14.800781 35.421875 0 13.394531 5.257812 25.972656 14.800781 35.425781l35.125 34.785156c3.898438 3.863281 8.988281 5.789063 14.074219 5.789063 5.152344 0 10.300781-1.976563 14.210938-5.925782 7.773437-7.847656 7.710937-20.511718-.136719-28.285156l-20.992188-20.789062h165.917969c11.046875 0 20-8.953125 20-20s-8.953125-20-20-20zm0 0" fill="#2a6ebb" data-original="#000000" style=""/></g></svg>
