<?xml version="1.0"?>
<svg xmlns="http://www.w3.org/2000/svg" xmlns:xlink="http://www.w3.org/1999/xlink" xmlns:svgjs="http://svgjs.com/svgjs" version="1.1" width="512" height="512" x="0" y="0" viewBox="0 0 511 512" style="enable-background:new 0 0 512 512" xml:space="preserve" class=""><g><path xmlns="http://www.w3.org/2000/svg" d="m32.5 16h352c17.671875 0 32 14.328125 32 32v432c0 17.671875-14.328125 32-32 32h-352c-17.671875 0-32-14.328125-32-32v-432c0-17.671875 14.328125-32 32-32zm0 0" fill="#2a6ebb" data-original="#77959e" style="" class=""/><path xmlns="http://www.w3.org/2000/svg" d="m32.5 374.625v-294.625c0-17.671875 14.328125-32 32-32h288c17.671875 0 32 14.328125 32 32v368c0 17.671875-14.328125 32-32 32h-214.625zm0 0" fill="#ffffff" data-original="#e4edfb" style="" class=""/><path xmlns="http://www.w3.org/2000/svg" d="m137.875 406.625v73.375l-105.375-105.375h73.375c17.675781 0 32 14.324219 32 32zm0 0" fill="#2a6ebb" data-original="#48c8ef" style="" class=""/><path xmlns="http://www.w3.org/2000/svg" d="m320.5 304h-96v-128h96v-80.703125l186.0625 144.703125-186.0625 144.703125zm0 0" fill="#2a6ebb" data-original="#ffcb5a" style="" class=""/><g xmlns="http://www.w3.org/2000/svg" fill="#fba61f"><path d="m160.5 192h32v32h-32zm0 0" fill="#2a6ebb" data-original="#fba61f" style="" class=""/><path d="m96.5 192h32v32h-32zm0 0" fill="#2a6ebb" data-original="#fba61f" style="" class=""/><path d="m160.5 256h32v32h-32zm0 0" fill="#2a6ebb" data-original="#fba61f" style="" class=""/><path d="m96.5 256h32v32h-32zm0 0" fill="#2a6ebb" data-original="#fba61f" style="" class=""/></g><path xmlns="http://www.w3.org/2000/svg" d="m32.5 448h32v32h-32zm0 0" fill="#ffffff" data-original="#ffffff" style="" class=""/><path xmlns="http://www.w3.org/2000/svg" d="m128.5 64v-64h160v64c0 17.671875-14.328125 32-32 32h-96c-17.671875 0-32-14.328125-32-32zm0 0" fill="#2a6ebb" data-original="#48c8ef" style="" class=""/></g></svg>
