<?xml version="1.0" standalone="no"?>
<!DOCTYPE svg PUBLIC "-//W3C//DTD SVG 20010904//EN"
 "http://www.w3.org/TR/2001/REC-SVG-20010904/DTD/svg10.dtd">
<svg version="1.0" xmlns="http://www.w3.org/2000/svg"
 width="21.000000pt" height="21.000000pt" viewBox="0 0 21.000000 21.000000"
 preserveAspectRatio="xMidYMid meet">

<g transform="translate(0.000000,21.000000) scale(0.100000,-0.100000)"
fill="#000000" stroke="none">
<path d="M12 198 c-16 -16 -16 -170 0 -186 19 -19 134 -16 142 4 8 22 8 59 -1
50 -4 -4 -8 -17 -8 -29 0 -20 -5 -22 -64 -22 l-64 0 1 90 1 90 42 0 c32 0 43
-4 47 -17 2 -10 11 -18 18 -18 8 0 14 -5 14 -11 0 -5 5 -7 11 -3 7 4 0 17 -17
35 -22 23 -37 29 -69 29 -22 0 -46 -5 -53 -12z"/>
<path d="M152 127 c-12 -13 -22 -27 -22 -31 0 -4 -12 -18 -27 -31 -16 -13 -25
-26 -22 -29 3 -3 23 10 44 28 21 19 42 33 46 30 9 -5 22 14 26 39 4 24 -20 21
-45 -6z"/>
<path d="M48 133 c6 -2 18 -2 25 0 6 3 1 5 -13 5 -14 0 -19 -2 -12 -5z"/>
<path d="M58 103 c12 -2 30 -2 40 0 9 3 -1 5 -23 4 -22 0 -30 -2 -17 -4z"/>
<path d="M53 73 c9 -2 23 -2 30 0 6 3 -1 5 -18 5 -16 0 -22 -2 -12 -5z"/>
</g>
</svg>
