<?xml version="1.0"?>
<svg xmlns="http://www.w3.org/2000/svg" xmlns:xlink="http://www.w3.org/1999/xlink" xmlns:svgjs="http://svgjs.com/svgjs" version="1.1" width="512" height="512" x="0" y="0" viewBox="0 0 512.342 512.342" style="enable-background:new 0 0 512 512" xml:space="preserve" class=""><g><g xmlns="http://www.w3.org/2000/svg"><path d="m84.164 293.471c-2.92-2.886-7.619-2.885-10.54 0l-23.984 23.686c-2.947 2.91-2.977 7.659-.066 10.606 2.91 2.945 7.659 2.977 10.606.065l11.214-11.075v48.066c0 4.143 3.358 7.5 7.5 7.5s7.5-3.357 7.5-7.5v-48.066l11.214 11.075c2.938 2.904 7.688 2.889 10.606-.065 2.911-2.947 2.881-7.696-.066-10.606z" fill="#2a6ebb" data-original="#000000" style="" class=""/><path d="m155.745 372.32c4.142 0 7.5-3.357 7.5-7.5v-48.066l11.214 11.075c2.947 2.911 7.696 2.88 10.606-.065 2.911-2.947 2.881-7.696-.066-10.606l-23.984-23.687c-2.921-2.885-7.619-2.885-10.54 0l-23.984 23.687c-2.947 2.91-2.977 7.659-.066 10.606 2.902 2.938 7.65 2.985 10.606.065l11.214-11.075v48.066c0 4.143 3.358 7.5 7.5 7.5z" fill="#2a6ebb" data-original="#000000" style="" class=""/><path d="m71.394 399.348c0 4.143 3.358 7.5 7.5 7.5h76.851c4.142 0 7.5-3.357 7.5-7.5s-3.358-7.5-7.5-7.5h-76.851c-4.142 0-7.5 3.357-7.5 7.5z" fill="#2a6ebb" data-original="#000000" style="" class=""/><path d="m282.979 302.549 8.58 8.352c2.968 2.891 7.717 2.825 10.605-.143 2.89-2.969 2.825-7.717-.143-10.605l-8.58-8.353c-12.062-11.737-31.424-11.478-43.166.584-4.61 5.346-8.604 7.065-8.539 11.922.027 1.988.843 3.886 2.268 5.272l33.555 32.662-33.555 32.661c-2.968 2.889-3.033 7.637-.144 10.604l6.414 6.591c11.756 12.078 31.076 12.351 43.166.582l34.437-33.52c6.652-6.472 8.887-16.322 5.694-25.094-2.63-7.223-7.724-10.304-11.846-14.733-2.97-2.89-7.718-2.822-10.606.144-2.889 2.969-2.824 7.717.144 10.606 4.895 5.007 7.209 6.353 8.213 9.114 1.195 3.283.406 6.813-2.061 9.214l-34.438 33.521c-6.144 5.979-15.969 5.852-21.953-.296l-1.184-1.216 33.703-32.805c1.45-1.411 2.269-3.35 2.269-5.374s-.818-3.963-2.269-5.374l-33.702-32.805 1.183-1.215c5.972-6.132 15.822-6.265 21.955-.296z" fill="#2a6ebb" data-original="#000000" style="" class=""/><path d="m386.012 148.136h-2.135v-63.619c0-11.185-9.1-20.284-20.284-20.284h-343.309c-11.184-.001-20.284 9.099-20.284 20.284v71.119c0 4.143 3.358 7.5 7.5 7.5s7.5-3.357 7.5-7.5v-71.119c0-2.914 2.371-5.284 5.284-5.284h133.816v45.561c0 8.335 6.781 15.115 15.116 15.115h45.445c8.335 0 15.116-6.78 15.116-15.115v-45.562h133.816c2.914 0 5.284 2.37 5.284 5.284v63.619h-26.725c-4.143 0-7.5 3.357-7.5 7.5s3.357 7.5 7.5 7.5h43.859c61.041 0 110.982 49.074 111.328 109.394.352 60.966-49.053 110.684-110.035 110.684h-3.428v-57.5h3.428c28.477 0 52.042-23.159 52.53-51.626.511-29.844-24.412-53.451-53.329-53.451h-112.141c-6.878 0-12.474 5.596-12.474 12.474v11.009l-54.084-52.202 54.084-52.201v10.947c0 6.878 5.596 12.474 12.474 12.474h37.802c4.143 0 7.5-3.357 7.5-7.5s-3.357-7.5-7.5-7.5h-35.275v-20.142c0-4.029-2.396-7.65-6.105-9.226-3.711-1.576-7.979-.784-10.879 2.014l-64.861 62.604c-2.302 2.223-3.622 5.332-3.622 8.531 0 3.198 1.32 6.308 3.622 8.53l64.861 62.604c2.9 2.798 7.172 3.589 10.878 2.014 3.71-1.575 6.106-5.196 6.106-9.227v-20.202h91.986v191.022c0 3.558-2.894 6.451-6.451 6.451h-340.974c-3.558 0-6.452-2.894-6.452-6.451v-241.036c0-4.143-3.358-7.5-7.5-7.5s-7.5 3.357-7.5 7.5v241.035c0 11.828 9.623 21.451 21.452 21.451h340.974c11.828 0 21.451-9.623 21.451-21.451v-28.445h3.428c69.296 0 125.433-56.464 125.035-125.77-.394-68.543-57.064-124.307-126.328-124.307zm-171.235-23.343c0 .063-.052.115-.116.115h-45.445c-.064 0-.116-.052-.116-.115v-45.561h45.676v45.561zm171.729 110.843c20.863 0 38.694 17.05 38.331 38.193-.349 20.338-17.186 36.884-37.532 36.884h-3.428v-75.077z" fill="#2a6ebb" data-original="#000000" style="" class=""/></g></g></svg>
